Coordinates
version=1
nRows=17
nColumns=33
inDegrees=yes

Units are S.I. units (second, meters, Newtons, ...)
Angles are in degrees.

endheader
time	ground_thorax_rot_x	ground_thorax_rot_y	ground_thorax_rot_z	ground_thorax_tx	ground_thorax_ty	ground_thorax_tz	clav_prot_r	clav_elev_r	scapula_abduction_r	scapula_elevation_r	scapula_upward_rot_r	scapula_winging_r	shoulder_elv_r	plane_of_elev_r	axial_rot_r	elbow_flexion_r	pro_sup_r	wrist_flex_r	wrist_dev_r	clav_prot_l	clav_elev_l	scapula_abduction_l	scapula_elevation_l	scapula_upward_rot_l	scapula_winging_l	shoulder_elv_l	plane_of_elev_l	axial_rot_l	elbow_flexion_l	pro_sup_l	wrist_flex_l	wrist_dev_l	
4.9900	38.997584	9.682984	7.942197	-222.422661	843.355843	7.562087	14.697853	37.484236	36.874841	45.000000	-45.000000	1713.869180	-1185.575464	147.458173	180.000000	1808.161729	56.574953	26.197375	10.150259	11.003218	-45.000000	-39.063431	45.000000	-43.302749	-2780.763820	-1533.200225	138.948773	171.457269	1088.225152	20.752890	8.135375	-22.789622	
5.0000	39.018105	9.734799	8.057409	-222.334448	842.610105	7.377346	14.738712	37.464262	36.828147	45.000000	-45.000000	1713.953433	-1185.600885	147.490313	180.000000	1808.187642	56.572953	26.199033	10.225853	11.069059	-45.000000	-38.997751	45.000000	-43.518347	-2780.821308	-1533.254454	138.905102	171.701718	1088.155801	21.153485	8.002321	-22.793818	
5.0100	39.036570	9.764687	8.162476	-222.194157	841.886305	7.201125	14.791988	37.425747	36.790132	45.000000	-45.000000	1714.022815	-1185.622224	147.514532	180.000000	1808.229082	56.588279	26.235877	10.370110	11.132153	-45.000000	-38.917530	45.000000	-43.668431	-2780.860431	-1533.299724	138.861254	171.952846	1088.096073	21.557406	7.826426	-22.764061	
5.0200	39.045957	9.779970	8.271715	-221.926151	841.198161	7.044490	14.821423	37.400014	36.765662	45.000000	-45.000000	1714.084218	-1185.633699	147.523555	180.000000	1808.284094	56.596113	26.230729	10.402811	11.177421	-45.000000	-38.871573	45.000000	-43.751927	-2780.910289	-1533.335136	138.823253	172.136644	1088.061921	21.997033	7.693173	-22.787856	
5.0300	39.047358	9.769058	8.372645	-221.542078	840.561592	6.906476	14.841203	37.392685	36.753002	45.000000	-45.000000	1714.136008	-1185.631643	147.519658	180.000000	1808.359283	56.610091	26.211674	10.386113	11.197049	-45.000000	-38.843526	45.000000	-43.763799	-2780.965222	-1533.355715	138.792327	172.269864	1088.054838	22.465103	7.575826	-22.834955	
5.0400	39.038801	9.729062	8.467453	-221.044409	839.993753	6.786934	14.854118	37.383745	36.759025	45.000000	-45.000000	1714.173710	-1185.618208	147.500996	180.000000	1808.452027	56.639038	26.190273	10.338372	11.196199	-45.000000	-38.831002	45.000000	-43.695086	-2781.019382	-1533.362228	138.766770	172.354664	1088.066373	22.957617	7.464350	-22.895478	
5.0500	39.021243	9.665447	8.552036	-220.456971	839.510174	6.681973	14.861539	37.396361	36.776364	45.000000	-45.000000	1714.203281	-1185.588248	147.478559	180.000000	1808.566832	56.687220	26.169238	10.266698	11.174487	-45.000000	-38.840768	45.000000	-43.562509	-2781.074617	-1533.356903	138.752120	172.395271	1088.098637	23.466691	7.363336	-22.966165	
5.0600	38.997151	9.582550	8.631738	-219.808337	839.122647	6.585931	14.869021	37.395765	36.810732	45.000000	-45.000000	1714.218064	-1185.547252	147.450701	180.000000	1808.693724	56.764190	26.165580	10.206334	11.148594	-45.000000	-38.858484	45.000000	-43.368606	-2781.120873	-1533.343232	138.741720	172.404689	1088.132135	23.976509	7.256826	-23.028751	
5.0700	38.967795	9.490565	8.703643	-219.117271	838.837355	6.493094	14.871666	37.412594	36.851395	45.000000	-45.000000	1714.226885	-1185.489736	147.423603	180.000000	1808.835577	56.865589	26.168432	10.136776	11.116734	-45.000000	-38.895350	45.000000	-43.141043	-2781.163493	-1533.323111	138.739866	172.379050	1088.173730	24.481022	7.162545	-23.095494	
5.0800	38.936178	9.393808	8.771425	-218.391256	838.654609	6.398046	14.871163	37.414090	36.904048	45.000000	-45.000000	1714.224764	-1185.421264	147.392556	180.000000	1808.983433	56.992873	26.183831	10.074292	11.089250	-45.000000	-38.944258	45.000000	-42.887381	-2781.197771	-1533.296137	138.742760	172.323170	1088.213940	24.971955	7.071618	-23.159861	
5.0900	38.903265	9.306473	8.839479	-217.626362	838.568720	6.295934	14.860374	37.423962	36.952542	45.000000	-45.000000	1714.221156	-1185.334367	147.360915	180.000000	1809.139065	57.137964	26.202196	10.008737	11.069399	-45.000000	-39.012761	45.000000	-42.623159	-2781.221681	-1533.263873	138.752573	172.235668	1088.258169	25.447622	6.991238	-23.227165	
5.1000	38.872980	9.230398	8.910850	-216.809366	838.568278	6.182771	14.834753	37.412526	36.997029	45.000000	-45.000000	1714.214795	-1185.232858	147.320614	180.000000	1809.292861	57.295753	26.222896	9.947987	11.062034	-45.000000	-39.093996	45.000000	-42.360923	-2781.236778	-1533.223203	138.766568	172.115761	1088.303032	25.907117	6.915514	-23.295046	
5.1100	38.843363	9.174734	8.989708	-215.920340	838.636581	6.055675	14.787130	37.402798	37.034197	45.000000	-45.000000	1714.210549	-1185.121819	147.277409	180.000000	1809.449955	57.456427	26.240190	9.886822	11.070942	-45.000000	-39.202349	45.000000	-42.102372	-2781.232767	-1533.181045	138.784912	171.964692	1088.361097	26.354371	6.843235	-23.365437	
5.1200	38.819612	9.132921	9.074185	-214.936759	838.752722	5.913296	14.729708	37.382592	37.078547	45.000000	-45.000000	1714.204316	-1185.010041	147.231139	180.000000	1809.604574	57.611482	26.252692	9.828777	11.087638	-45.000000	-39.328209	45.000000	-41.854704	-2781.223036	-1533.133078	138.810981	171.782306	1088.432924	26.790588	6.771726	-23.437768	
5.1300	38.799702	9.112138	9.171992	-213.836334	838.893085	5.756047	14.665991	37.366107	37.135585	45.000000	-45.000000	1714.192845	-1184.911432	147.185928	180.000000	1809.755644	57.750752	26.258214	9.774067	11.122319	-45.000000	-39.471230	45.000000	-41.595043	-2781.194170	-1533.090575	138.834960	171.573511	1088.512613	27.213605	6.695951	-23.505791	
5.1400	38.790831	9.097798	9.272796	-212.600056	839.033195	5.586291	14.616067	37.350300	37.218305	45.000000	-45.000000	1714.169446	-1184.829702	147.133019	180.000000	1809.893018	57.865074	26.255982	9.726931	11.158443	-45.000000	-39.610053	45.000000	-41.322654	-2781.166293	-1533.050112	138.855199	171.335650	1088.592095	27.619567	6.616971	-23.566588	
5.1500	38.788068	9.094564	9.382853	-211.213274	839.149732	5.408093	14.580784	37.343707	37.327292	45.000000	-45.000000	1714.135597	-1184.771853	147.075157	180.000000	1810.018038	57.944122	26.245207	9.688421	11.199176	-45.000000	-39.745403	45.000000	-41.022579	-2781.130395	-1533.020312	138.867151	171.071987	1088.668053	27.999473	6.533961	-23.615492	
